<?xml version="1.0" encoding="UTF-8"?>
<svg id="Layer_1" xmlns="http://www.w3.org/2000/svg" version="1.1" viewBox="0 0 1899.2 387.6">
  <!-- Generator: Adobe Illustrator 29.6.1, SVG Export Plug-In . SVG Version: 2.1.1 Build 9)  -->
  <path d="M218.1,265.3c38.1,0,68.3-4.4,87.8-9.8,0,17.6-3.9,45.4-9.3,59.5-17.1,5.4-44.9,9.8-78.6,9.8-91.3,0-142.5-42.9-142.5-126.9s54.7-126.9,130.3-126.9,115.7,42.9,115.7,123.5c-3.9,9.3-10.2,19.5-16.6,26.8-63,0-108.8,0-148.4-5.9,4.9,30.3,22.4,49.8,61.5,49.8ZM156.1,188.2c31.2-7.8,56.6-10.2,88.3-10.7-2.9-31.2-15.6-46.8-42-46.8s-44.4,21-46.4,57.6Z" fill="#603"/>
  <path d="M348.4,266.3l112.2-130.8h-109.3c0-20.5,3.9-43.9,9.8-59.5h201.5c0,14.2-1,39.5-2.4,53.7l-112.2,130.8h121c0,15.6-3.9,42-9.3,59.5h-213.3c0-14.2,0-38.1,2-53.7Z" fill="#603"/>
  <path d="M1003.3,163.8v156.2h-78.1v-138.1c0-35.1-5.9-51.2-27.3-51.2-38.1,0-51.2,89.8-51.2,189.3h-78.1v-138.1c0-35.1-5.4-51.2-27.3-51.2-37.6,0-50.8,89.8-50.8,189.3h-78.1v-156.2c0-34.2-2.9-58.6-4.9-87.8h76.1c3.4,26.8,5.9,47.8,6.3,69.3,20.5-56.6,49.3-74.2,84.4-74.2s65.9,17.1,71.2,75.6c20.5-58.1,49.3-75.6,85.4-75.6s72.2,20.5,72.2,92.7Z" fill="#603"/>
  <path d="M1370.7,73.8c-70,0-120.7,31.9-120.7,123.6s22.1,92.1,62.3,92.1,51.1-14.5,68-61.4v57.2h64.3V77.9c-24.9-2.1-49.5-4.1-74-4.1ZM1338.6,238.9c-16.5,0-25.7-30.3-25.7-65.5s12.9-49,49.9-49,16.9.8,24.1,2.1c-10.1,68.9-22.1,112.4-48.3,112.4Z" fill="#ad5a8c"/>
  <path d="M1197.5,71.1c-84.9,0-146.4,37.6-146.4,145.4s26.8,108.3,75.6,108.3,41.6-7.2,58.2-27.2c8.2-9.9,24.3-4.2,24.3,8.7h0c0,7.6,6.1,13.7,13.7,13.7h50.7c7.6,0,13.7-6.1,13.7-13.7V88.6c0-7.1-5.5-13.1-12.6-13.7-25.9-2.1-51.6-3.9-77.2-3.9ZM1158.5,265.3c-20,0-31.2-35.6-31.2-77.1s15.6-57.6,60.5-57.6,9.8.2,14.6.6c8,.7,13.7,8,12.4,15.9-11.8,72.8-26.5,118.2-56.4,118.2Z" display="none" fill="#603"/>
  <g>
    <path d="M1197.3,71.5c-84.8,0-146.2,37.6-146.2,145.4s26.8,108.3,75.6,108.3,61.9-17.1,82.4-72.2v42.3c0,13.8,11.2,25,25,25h53V76.4c-30.2-2.4-60-4.9-89.7-4.9ZM1158.5,265.3c-20,0-31.2-35.6-31.2-77.1s15.6-57.6,60.5-57.6,20.5,1,29.3,2.4c-12.2,81-26.8,132.2-58.6,132.2Z" fill="#603"/>
    <rect x="1231.5" y="275.4" width="416.5" height="45" rx="7.6" ry="7.6" fill="#603"/>
    <path d="M1708,282.8v12.6c0,13.8-11.2,25-25,25h-53v-156.2c0-34.2-2.9-58.6-4.9-87.8h76c4.4,32.7,6.8,57.1,6.8,83.9,24.9-59,60.9-88.8,96.5-88.8,3.9,22,5.9,51.7,5.9,77.6-79,0-99.5,26.4-102.4,133.7Z" fill="#603"/>
  </g>
</svg>